<mxfile host="app.diagrams.net" agent="Mozilla/5.0 (Windows NT 10.0; Win64; x64) AppleWebKit/537.36 (KHTML, like Gecko) Chrome/133.0.0.0 Safari/537.36" version="26.0.15">
  <diagram name="Page-1" id="PHPWQ72G-FbSZg1kjlzN">
    <mxGraphModel dx="875" dy="1542" grid="1" gridSize="10" guides="1" tooltips="1" connect="1" arrows="1" fold="1" page="1" pageScale="1" pageWidth="850" pageHeight="1100" math="0" shadow="0">
      <root>
        <mxCell id="0" />
        <mxCell id="1" parent="0" />
        <mxCell id="mTnGnp5YAqu6k8MlJbpn-1" value="Raspberry &lt;br&gt;Pi" style="whiteSpace=wrap;html=1;aspect=fixed;" vertex="1" parent="1">
          <mxGeometry x="850" y="180" width="80" height="80" as="geometry" />
        </mxCell>
        <mxCell id="mTnGnp5YAqu6k8MlJbpn-2" value="Steam Sensor&lt;br&gt;4x" style="whiteSpace=wrap;html=1;aspect=fixed;" vertex="1" parent="1">
          <mxGeometry x="40" y="100" width="80" height="80" as="geometry" />
        </mxCell>
        <mxCell id="mTnGnp5YAqu6k8MlJbpn-3" value="Analog Sensors" style="rounded=0;whiteSpace=wrap;html=1;" vertex="1" parent="1">
          <mxGeometry x="20" y="30" width="120" height="60" as="geometry" />
        </mxCell>
        <mxCell id="mTnGnp5YAqu6k8MlJbpn-4" value="Digital Sensors" style="rounded=0;whiteSpace=wrap;html=1;" vertex="1" parent="1">
          <mxGeometry x="640" y="30" width="120" height="60" as="geometry" />
        </mxCell>
        <mxCell id="mTnGnp5YAqu6k8MlJbpn-5" value="Analog AC Current Sensor&lt;div&gt;1x&lt;/div&gt;" style="whiteSpace=wrap;html=1;aspect=fixed;" vertex="1" parent="1">
          <mxGeometry x="40" y="190" width="80" height="80" as="geometry" />
        </mxCell>
        <mxCell id="mTnGnp5YAqu6k8MlJbpn-6" value="Analog Hall Current Sensor&lt;div&gt;1x&lt;/div&gt;" style="whiteSpace=wrap;html=1;aspect=fixed;" vertex="1" parent="1">
          <mxGeometry x="40" y="280" width="80" height="80" as="geometry" />
        </mxCell>
        <mxCell id="mTnGnp5YAqu6k8MlJbpn-7" value="Digital Wattmeter&lt;div&gt;3x&lt;/div&gt;" style="whiteSpace=wrap;html=1;aspect=fixed;" vertex="1" parent="1">
          <mxGeometry x="660" y="100" width="80" height="80" as="geometry" />
        </mxCell>
        <mxCell id="mTnGnp5YAqu6k8MlJbpn-8" value="Digital Temperature Sensor&lt;div&gt;1x&lt;/div&gt;" style="whiteSpace=wrap;html=1;aspect=fixed;" vertex="1" parent="1">
          <mxGeometry x="660" y="190" width="80" height="80" as="geometry" />
        </mxCell>
        <mxCell id="mTnGnp5YAqu6k8MlJbpn-9" value="Capacitive Touch Sensor&lt;div&gt;1x&lt;/div&gt;&lt;div&gt;Most likley not used&lt;/div&gt;" style="whiteSpace=wrap;html=1;aspect=fixed;" vertex="1" parent="1">
          <mxGeometry x="1340" y="310" width="80" height="80" as="geometry" />
        </mxCell>
        <mxCell id="mTnGnp5YAqu6k8MlJbpn-41" value="" style="edgeStyle=orthogonalEdgeStyle;rounded=0;orthogonalLoop=1;jettySize=auto;html=1;strokeColor=light-dark(#00FF00,#FFFFFF);" edge="1" parent="1" source="mTnGnp5YAqu6k8MlJbpn-10" target="mTnGnp5YAqu6k8MlJbpn-39">
          <mxGeometry relative="1" as="geometry" />
        </mxCell>
        <mxCell id="mTnGnp5YAqu6k8MlJbpn-10" value="ESP32" style="whiteSpace=wrap;html=1;aspect=fixed;" vertex="1" parent="1">
          <mxGeometry x="345" y="190" width="80" height="80" as="geometry" />
        </mxCell>
        <mxCell id="mTnGnp5YAqu6k8MlJbpn-12" value="Digital Pins x 17&lt;div&gt;Analog Pins x 11&lt;/div&gt;&lt;div&gt;+/-&lt;/div&gt;" style="rounded=0;whiteSpace=wrap;html=1;" vertex="1" parent="1">
          <mxGeometry x="340" y="-30" width="120" height="60" as="geometry" />
        </mxCell>
        <mxCell id="mTnGnp5YAqu6k8MlJbpn-20" value="" style="endArrow=none;html=1;rounded=0;exitX=1;exitY=0.5;exitDx=0;exitDy=0;strokeColor=light-dark(#00FF00,#FFFFFF);" edge="1" parent="1">
          <mxGeometry width="50" height="50" relative="1" as="geometry">
            <mxPoint x="120" y="120" as="sourcePoint" />
            <mxPoint x="280" y="120" as="targetPoint" />
          </mxGeometry>
        </mxCell>
        <mxCell id="mTnGnp5YAqu6k8MlJbpn-22" value="" style="endArrow=none;html=1;rounded=0;strokeColor=light-dark(#00FF00,#FFFFFF);" edge="1" parent="1">
          <mxGeometry width="50" height="50" relative="1" as="geometry">
            <mxPoint x="280" y="120" as="sourcePoint" />
            <mxPoint x="280" y="200" as="targetPoint" />
          </mxGeometry>
        </mxCell>
        <mxCell id="mTnGnp5YAqu6k8MlJbpn-24" value="" style="endArrow=classic;html=1;rounded=0;entryX=0.01;entryY=0.121;entryDx=0;entryDy=0;entryPerimeter=0;strokeColor=light-dark(#00FF00,#FFFFFF);" edge="1" parent="1" target="mTnGnp5YAqu6k8MlJbpn-10">
          <mxGeometry width="50" height="50" relative="1" as="geometry">
            <mxPoint x="280" y="200" as="sourcePoint" />
            <mxPoint x="260" y="180" as="targetPoint" />
          </mxGeometry>
        </mxCell>
        <mxCell id="mTnGnp5YAqu6k8MlJbpn-25" value="" style="endArrow=none;html=1;rounded=0;exitX=1;exitY=0.5;exitDx=0;exitDy=0;strokeColor=light-dark(#00FF00,#FFFFFF);" edge="1" parent="1">
          <mxGeometry width="50" height="50" relative="1" as="geometry">
            <mxPoint x="120" y="210" as="sourcePoint" />
            <mxPoint x="280" y="210" as="targetPoint" />
          </mxGeometry>
        </mxCell>
        <mxCell id="mTnGnp5YAqu6k8MlJbpn-26" value="" style="endArrow=classic;html=1;rounded=0;entryX=0.01;entryY=0.121;entryDx=0;entryDy=0;entryPerimeter=0;strokeColor=light-dark(#00FF00,#FFFFFF);" edge="1" parent="1">
          <mxGeometry width="50" height="50" relative="1" as="geometry">
            <mxPoint x="279" y="210" as="sourcePoint" />
            <mxPoint x="345" y="210" as="targetPoint" />
          </mxGeometry>
        </mxCell>
        <mxCell id="mTnGnp5YAqu6k8MlJbpn-27" value="" style="endArrow=classic;html=1;rounded=0;entryX=0.01;entryY=0.121;entryDx=0;entryDy=0;entryPerimeter=0;strokeColor=light-dark(#00FF00,#FFFFFF);" edge="1" parent="1">
          <mxGeometry width="50" height="50" relative="1" as="geometry">
            <mxPoint x="279" y="219.66" as="sourcePoint" />
            <mxPoint x="345" y="219.66" as="targetPoint" />
          </mxGeometry>
        </mxCell>
        <mxCell id="mTnGnp5YAqu6k8MlJbpn-28" value="" style="endArrow=none;html=1;rounded=0;exitX=1;exitY=0.5;exitDx=0;exitDy=0;strokeColor=light-dark(#00FF00,#FFFFFF);" edge="1" parent="1">
          <mxGeometry width="50" height="50" relative="1" as="geometry">
            <mxPoint x="120" y="300" as="sourcePoint" />
            <mxPoint x="280" y="300" as="targetPoint" />
          </mxGeometry>
        </mxCell>
        <mxCell id="mTnGnp5YAqu6k8MlJbpn-29" value="" style="endArrow=none;html=1;rounded=0;strokeColor=light-dark(#00FF00,#FFFFFF);" edge="1" parent="1">
          <mxGeometry width="50" height="50" relative="1" as="geometry">
            <mxPoint x="280" y="220" as="sourcePoint" />
            <mxPoint x="280" y="300" as="targetPoint" />
          </mxGeometry>
        </mxCell>
        <mxCell id="mTnGnp5YAqu6k8MlJbpn-30" value="" style="endArrow=classic;html=1;rounded=0;entryX=0.996;entryY=0.128;entryDx=0;entryDy=0;entryPerimeter=0;strokeColor=light-dark(#00FF00,#FFFFFF);" edge="1" parent="1" target="mTnGnp5YAqu6k8MlJbpn-10">
          <mxGeometry width="50" height="50" relative="1" as="geometry">
            <mxPoint x="500" y="200" as="sourcePoint" />
            <mxPoint x="510" y="205" as="targetPoint" />
          </mxGeometry>
        </mxCell>
        <mxCell id="mTnGnp5YAqu6k8MlJbpn-31" value="" style="endArrow=none;html=1;rounded=0;exitX=1;exitY=0.5;exitDx=0;exitDy=0;strokeColor=light-dark(#00FF00,#FFFFFF);" edge="1" parent="1">
          <mxGeometry width="50" height="50" relative="1" as="geometry">
            <mxPoint x="500" y="120" as="sourcePoint" />
            <mxPoint x="660" y="120" as="targetPoint" />
          </mxGeometry>
        </mxCell>
        <mxCell id="mTnGnp5YAqu6k8MlJbpn-32" value="" style="endArrow=none;html=1;rounded=0;strokeColor=light-dark(#00FF00,#FFFFFF);" edge="1" parent="1">
          <mxGeometry width="50" height="50" relative="1" as="geometry">
            <mxPoint x="500" y="120" as="sourcePoint" />
            <mxPoint x="500" y="200" as="targetPoint" />
          </mxGeometry>
        </mxCell>
        <mxCell id="mTnGnp5YAqu6k8MlJbpn-33" value="" style="endArrow=classic;html=1;rounded=0;entryX=0.996;entryY=0.128;entryDx=0;entryDy=0;entryPerimeter=0;strokeColor=light-dark(#00FF00,#FFFFFF);" edge="1" parent="1">
          <mxGeometry width="50" height="50" relative="1" as="geometry">
            <mxPoint x="520" y="220" as="sourcePoint" />
            <mxPoint x="425" y="219.66" as="targetPoint" />
          </mxGeometry>
        </mxCell>
        <mxCell id="mTnGnp5YAqu6k8MlJbpn-34" value="" style="endArrow=none;html=1;rounded=0;strokeColor=light-dark(#00FF00,#FFFFFF);" edge="1" parent="1">
          <mxGeometry width="50" height="50" relative="1" as="geometry">
            <mxPoint x="520" y="210" as="sourcePoint" />
            <mxPoint x="660" y="210" as="targetPoint" />
          </mxGeometry>
        </mxCell>
        <mxCell id="mTnGnp5YAqu6k8MlJbpn-35" value="" style="endArrow=classic;html=1;rounded=0;entryX=0.996;entryY=0.128;entryDx=0;entryDy=0;entryPerimeter=0;strokeColor=light-dark(#0000FF,#FFFFFF);" edge="1" parent="1">
          <mxGeometry width="50" height="50" relative="1" as="geometry">
            <mxPoint x="510" y="210" as="sourcePoint" />
            <mxPoint x="425" y="210" as="targetPoint" />
          </mxGeometry>
        </mxCell>
        <mxCell id="mTnGnp5YAqu6k8MlJbpn-36" value="" style="endArrow=none;html=1;rounded=0;strokeColor=light-dark(#0000FF,#FFFFFF);" edge="1" parent="1">
          <mxGeometry width="50" height="50" relative="1" as="geometry">
            <mxPoint x="510" y="130" as="sourcePoint" />
            <mxPoint x="660" y="130" as="targetPoint" />
          </mxGeometry>
        </mxCell>
        <mxCell id="mTnGnp5YAqu6k8MlJbpn-37" value="" style="endArrow=none;html=1;rounded=0;strokeColor=light-dark(#0000FF,#FFFFFF);" edge="1" parent="1">
          <mxGeometry width="50" height="50" relative="1" as="geometry">
            <mxPoint x="510" y="130" as="sourcePoint" />
            <mxPoint x="510" y="210" as="targetPoint" />
          </mxGeometry>
        </mxCell>
        <mxCell id="mTnGnp5YAqu6k8MlJbpn-38" value="" style="endArrow=none;html=1;rounded=0;strokeColor=light-dark(#00FF00,#FFFFFF);" edge="1" parent="1">
          <mxGeometry width="50" height="50" relative="1" as="geometry">
            <mxPoint x="520" y="210" as="sourcePoint" />
            <mxPoint x="520" y="220" as="targetPoint" />
          </mxGeometry>
        </mxCell>
        <mxCell id="mTnGnp5YAqu6k8MlJbpn-39" value="Raspberry&amp;nbsp;&lt;div&gt;Pi&lt;/div&gt;" style="whiteSpace=wrap;html=1;aspect=fixed;" vertex="1" parent="1">
          <mxGeometry x="345" y="80" width="80" height="80" as="geometry" />
        </mxCell>
        <mxCell id="mTnGnp5YAqu6k8MlJbpn-42" value="L" style="whiteSpace=wrap;html=1;aspect=fixed;" vertex="1" parent="1">
          <mxGeometry x="160" y="480" width="40" height="40" as="geometry" />
        </mxCell>
        <mxCell id="mTnGnp5YAqu6k8MlJbpn-43" value="N" style="whiteSpace=wrap;html=1;aspect=fixed;" vertex="1" parent="1">
          <mxGeometry x="200" y="480" width="40" height="40" as="geometry" />
        </mxCell>
        <mxCell id="mTnGnp5YAqu6k8MlJbpn-44" value="" style="endArrow=none;html=1;rounded=0;strokeColor=light-dark(#FF0000,#FFFFFF);" edge="1" parent="1">
          <mxGeometry width="50" height="50" relative="1" as="geometry">
            <mxPoint x="180" y="480" as="sourcePoint" />
            <mxPoint x="180" y="130" as="targetPoint" />
          </mxGeometry>
        </mxCell>
        <mxCell id="mTnGnp5YAqu6k8MlJbpn-45" value="" style="endArrow=classic;html=1;rounded=0;entryX=1.043;entryY=0.404;entryDx=0;entryDy=0;entryPerimeter=0;strokeColor=light-dark(#FF0000,#FFFFFF);" edge="1" parent="1">
          <mxGeometry width="50" height="50" relative="1" as="geometry">
            <mxPoint x="180" y="130" as="sourcePoint" />
            <mxPoint x="120" y="130.31999999999994" as="targetPoint" />
          </mxGeometry>
        </mxCell>
        <mxCell id="mTnGnp5YAqu6k8MlJbpn-46" value="" style="endArrow=classic;html=1;rounded=0;entryX=1.043;entryY=0.404;entryDx=0;entryDy=0;entryPerimeter=0;strokeColor=light-dark(#FF0000,#FFFFFF);" edge="1" parent="1">
          <mxGeometry width="50" height="50" relative="1" as="geometry">
            <mxPoint x="180" y="219.66" as="sourcePoint" />
            <mxPoint x="120" y="219.97999999999993" as="targetPoint" />
          </mxGeometry>
        </mxCell>
        <mxCell id="mTnGnp5YAqu6k8MlJbpn-47" value="" style="endArrow=classic;html=1;rounded=0;entryX=1.043;entryY=0.404;entryDx=0;entryDy=0;entryPerimeter=0;strokeColor=light-dark(#FF0000,#FFFFFF);" edge="1" parent="1">
          <mxGeometry width="50" height="50" relative="1" as="geometry">
            <mxPoint x="180" y="310" as="sourcePoint" />
            <mxPoint x="120" y="310.31999999999994" as="targetPoint" />
          </mxGeometry>
        </mxCell>
        <mxCell id="mTnGnp5YAqu6k8MlJbpn-48" value="" style="endArrow=none;html=1;rounded=0;strokeColor=light-dark(#FF0000,#FFFFFF);" edge="1" parent="1">
          <mxGeometry width="50" height="50" relative="1" as="geometry">
            <mxPoint x="180" y="310" as="sourcePoint" />
            <mxPoint x="600" y="310" as="targetPoint" />
          </mxGeometry>
        </mxCell>
        <mxCell id="mTnGnp5YAqu6k8MlJbpn-49" value="" style="endArrow=classic;html=1;rounded=0;entryX=0;entryY=0.5;entryDx=0;entryDy=0;strokeColor=light-dark(#FF0000,#FFFFFF);" edge="1" parent="1" target="mTnGnp5YAqu6k8MlJbpn-7">
          <mxGeometry width="50" height="50" relative="1" as="geometry">
            <mxPoint x="600" y="140" as="sourcePoint" />
            <mxPoint x="610" y="140" as="targetPoint" />
          </mxGeometry>
        </mxCell>
        <mxCell id="mTnGnp5YAqu6k8MlJbpn-50" value="" style="endArrow=none;html=1;rounded=0;strokeColor=light-dark(#FF0000,#FFFFFF);" edge="1" parent="1">
          <mxGeometry width="50" height="50" relative="1" as="geometry">
            <mxPoint x="600" y="310" as="sourcePoint" />
            <mxPoint x="600" y="140" as="targetPoint" />
          </mxGeometry>
        </mxCell>
        <mxCell id="mTnGnp5YAqu6k8MlJbpn-51" value="" style="endArrow=classic;html=1;rounded=0;entryX=0;entryY=0.5;entryDx=0;entryDy=0;strokeColor=light-dark(#FF0000,#FFFFFF);" edge="1" parent="1">
          <mxGeometry width="50" height="50" relative="1" as="geometry">
            <mxPoint x="600" y="219.66" as="sourcePoint" />
            <mxPoint x="660" y="219.66" as="targetPoint" />
          </mxGeometry>
        </mxCell>
        <mxCell id="mTnGnp5YAqu6k8MlJbpn-53" value="" style="endArrow=none;html=1;rounded=0;" edge="1" parent="1">
          <mxGeometry width="50" height="50" relative="1" as="geometry">
            <mxPoint x="220" y="480" as="sourcePoint" />
            <mxPoint x="220" y="140" as="targetPoint" />
          </mxGeometry>
        </mxCell>
        <mxCell id="mTnGnp5YAqu6k8MlJbpn-54" value="" style="endArrow=classic;html=1;rounded=0;entryX=1;entryY=0.5;entryDx=0;entryDy=0;" edge="1" parent="1" target="mTnGnp5YAqu6k8MlJbpn-2">
          <mxGeometry width="50" height="50" relative="1" as="geometry">
            <mxPoint x="220" y="140" as="sourcePoint" />
            <mxPoint x="380" y="280" as="targetPoint" />
          </mxGeometry>
        </mxCell>
        <mxCell id="mTnGnp5YAqu6k8MlJbpn-55" value="" style="endArrow=classic;html=1;rounded=0;entryX=1;entryY=0.5;entryDx=0;entryDy=0;" edge="1" parent="1">
          <mxGeometry width="50" height="50" relative="1" as="geometry">
            <mxPoint x="220" y="229.66" as="sourcePoint" />
            <mxPoint x="120" y="229.66" as="targetPoint" />
          </mxGeometry>
        </mxCell>
        <mxCell id="mTnGnp5YAqu6k8MlJbpn-56" value="" style="endArrow=classic;html=1;rounded=0;entryX=1;entryY=0.5;entryDx=0;entryDy=0;" edge="1" parent="1">
          <mxGeometry width="50" height="50" relative="1" as="geometry">
            <mxPoint x="220" y="319.65999999999997" as="sourcePoint" />
            <mxPoint x="120" y="319.65999999999997" as="targetPoint" />
          </mxGeometry>
        </mxCell>
        <mxCell id="mTnGnp5YAqu6k8MlJbpn-57" value="" style="endArrow=none;html=1;rounded=0;" edge="1" parent="1">
          <mxGeometry width="50" height="50" relative="1" as="geometry">
            <mxPoint x="220" y="320" as="sourcePoint" />
            <mxPoint x="590" y="320" as="targetPoint" />
          </mxGeometry>
        </mxCell>
        <mxCell id="mTnGnp5YAqu6k8MlJbpn-58" value="" style="endArrow=none;html=1;rounded=0;" edge="1" parent="1">
          <mxGeometry width="50" height="50" relative="1" as="geometry">
            <mxPoint x="590" y="320" as="sourcePoint" />
            <mxPoint x="590" y="150" as="targetPoint" />
          </mxGeometry>
        </mxCell>
        <mxCell id="mTnGnp5YAqu6k8MlJbpn-59" value="" style="endArrow=classic;html=1;rounded=0;" edge="1" parent="1">
          <mxGeometry width="50" height="50" relative="1" as="geometry">
            <mxPoint x="590" y="150" as="sourcePoint" />
            <mxPoint x="660" y="150" as="targetPoint" />
          </mxGeometry>
        </mxCell>
        <mxCell id="mTnGnp5YAqu6k8MlJbpn-60" value="" style="endArrow=classic;html=1;rounded=0;" edge="1" parent="1">
          <mxGeometry width="50" height="50" relative="1" as="geometry">
            <mxPoint x="590" y="229.66" as="sourcePoint" />
            <mxPoint x="660" y="229.66" as="targetPoint" />
          </mxGeometry>
        </mxCell>
      </root>
    </mxGraphModel>
  </diagram>
</mxfile>
